<svg width="30" height="30" viewBox="0 0 32 31" fill="none" xmlns="http://www.w3.org/2000/svg">
<path d="M14.35 30.35L0.45 16.45C0.283333 16.2833 0.166667 16.1167 0.1 15.95C0.0333337 15.7833 0 15.6 0 15.4C0 15.2 0.0333337 15.0167 0.1 14.85C0.166667 14.6833 0.283333 14.5167 0.45 14.35L14.4 0.4C14.6667 0.133333 15 0 15.4 0C15.8 0 16.15 0.15 16.45 0.45C16.75 0.75 16.9 1.1 16.9 1.5C16.9 1.9 16.75 2.25 16.45 2.55L5.1 13.9H29.9C30.3333 13.9 30.6917 14.0417 30.975 14.325C31.2583 14.6083 31.4 14.9667 31.4 15.4C31.4 15.8333 31.2583 16.1917 30.975 16.475C30.6917 16.7583 30.3333 16.9 29.9 16.9H5.1L16.5 28.3C16.7667 28.5667 16.9 28.9 16.9 29.3C16.9 29.7 16.75 30.05 16.45 30.35C16.15 30.65 15.8 30.8 15.4 30.8C15 30.8 14.65 30.65 14.35 30.35V30.35Z" fill="#6D6D6D"/>
</svg>
