<svg width="372" height="372" viewBox="0 0 372 372" fill="none" xmlns="http://www.w3.org/2000/svg">
<path d="M186 0C83.275 0 0 83.275 0 186C0 288.724 83.275 372 186 372C288.724 372 372 288.724 372 186C372 83.275 288.724 0 186 0Z" fill="#B7B0B0"/>
<path d="M42.241 304.031C42.241 304.031 83.7007 251.101 186 251.101C288.3 251.101 329.762 304.031 329.762 304.031" fill="white"/>
<path d="M186 185.999C216.818 185.999 241.8 161.018 241.8 130.199C241.8 99.382 216.818 74.3994 186 74.3994C155.181 74.3994 130.2 99.382 130.2 130.199C130.2 161.018 155.181 185.999 186 185.999Z" fill="white"/>
</svg>
